Coordinates
version=1
nRows=19
nColumns=24
inDegrees=yes

Units are S.I. units (second, meters, Newtons, ...)
Angles are in degrees.

endheader
time	pelvis_tilt	pelvis_list	pelvis_rotation	pelvis_tx	pelvis_ty	pelvis_tz	hip_flexion_r	hip_adduction_r	hip_rotation_r	knee_angle_r	ankle_angle_r	subtalar_angle_r	mtp_angle_r	hip_flexion_l	hip_adduction_l	hip_rotation_l	knee_angle_l	ankle_angle_l	subtalar_angle_l	mtp_angle_l	lumbar_extension	lumbar_bending	lumbar_rotation
      0.96166667	     -1.72916790	     -0.88323073	      1.98055284	     -0.37111443	      1.00611238	      0.36684315	     11.85190703	      3.49580597	      0.35544876	    -19.71656527	     10.94645073	    -12.44616550	     -1.96808367	     16.79319551	     -2.15708755	     -0.03001050	    -67.11624351	     -0.48332669	    -10.90840389	      2.75703412	    -11.64400757	      9.29026360	     -0.88665282
      0.96583333	     -1.71230977	     -0.76131415	      1.86390872	     -0.36660063	      1.00699152	      0.36734201	     11.32615567	      3.39979536	      0.38040916	    -19.24678477	     10.96443481	    -12.29658573	     -1.96089806	     17.25966929	     -2.05562106	     -0.16147942	    -66.64587870	      0.15555530	    -10.62195266	      2.68662121	    -11.72379278	      9.09958759	     -0.67978879
      0.97000000	     -1.67863470	     -0.64201763	      1.75072214	     -0.36209206	      1.00786653	      0.36782295	     10.77994936	      3.30275233	      0.39500927	    -18.76808601	     10.97855443	    -12.13687640	     -1.94975670	     17.69776850	     -1.95653412	     -0.28495366	    -66.13035004	      0.76851100	    -10.32190036	      2.61727845	    -11.82268772	      8.91348471	     -0.48040362
      0.97416667	     -1.67076443	     -0.51580258	      1.63741311	     -0.35759854	      1.00865333	      0.36827153	     10.27225285	      3.19293100	      0.40841820	    -18.30993607	     10.98291420	    -11.96191891	     -1.93739479	     18.15476789	     -1.84199257	     -0.39476303	    -65.57640167	      1.34679901	    -10.02753178	      2.56643757	    -11.89649056	      8.73232428	     -0.31110483
      0.97833333	     -1.63857051	     -0.39751868	      1.52491107	     -0.35308668	      1.00943949	      0.36871387	      9.73423015	      3.08880528	      0.40496316	    -17.84215441	     11.00335079	    -11.78124853	     -1.92166851	     18.57289259	     -1.74301094	     -0.50781701	    -64.97894188	      1.89960772	     -9.70990605	      2.51845514	    -11.98258147	      8.55988759	     -0.13183960
      0.98250000	     -1.59478186	     -0.30944122	      1.41883822	     -0.34856523	      1.01018241	      0.36916577	      9.17818275	      3.01774282	      0.39499663	    -17.36072054	     11.03831661	    -11.61320480	     -1.89809186	     18.97502434	     -1.68583334	     -0.61727780	    -64.35808079	      2.42573996	     -9.37462232	      2.45819730	    -12.07949385	      8.39502569	      0.06854530
      0.98666667	     -1.56040752	     -0.20115716	      1.31184311	     -0.34406118	      1.01087777	      0.36957131	      8.64246894	      2.91847858	      0.38110383	    -16.89828953	     11.05878673	    -11.43060269	     -1.87034251	     19.37292816	     -1.59503000	     -0.71239568	    -63.68875021	      2.90439110	     -9.05882715	      2.40012445	    -12.17036903	      8.23222202	      0.24061383
      0.99083333	     -1.55003214	     -0.08375098	      1.20064179	     -0.33956994	      1.01148567	      0.36995267	      8.14595537	      2.80448464	      0.36106236	    -16.46180940	     11.06791895	    -11.23604064	     -1.84538973	     19.78589257	     -1.48752921	     -0.79840291	    -62.98129899	      3.33553908	     -8.76184242	      2.36069835	    -12.22796042	      8.08042493	      0.38094990
      0.99500000	     -1.52874419	      0.00046690	      1.09917739	     -0.33505258	      1.01207236	      0.37033348	      7.62577353	      2.72549585	      0.32780982	    -15.99887592	     11.06331564	    -11.03623318	     -1.82089990	     20.17934647	     -1.42268292	     -0.87657510	    -62.24583200	      3.74293567	     -8.46283461	      2.32988612	    -12.29548920	      7.93354135	      0.52323174
      0.99916667	     -1.48630470	      0.08248741	      0.99734431	     -0.33054403	      1.01261234	      0.37070487	      7.08689326	      2.64935433	      0.30547045	    -15.54858170	     11.14808825	    -10.84466922	     -1.77787420	     20.54228916	     -1.36088923	     -0.94874288	    -61.48366755	      4.12006325	     -8.15349872	      2.27997933	    -12.39493614	      7.79313802	      0.71648841
      1.00333333	     -1.43655226	      0.16888919	      0.89768267	     -0.32602317	      1.01315516	      0.37104361	      6.53820439	      2.56311372	      0.26917798	    -15.09157019	     11.17325893	    -10.64728657	     -1.73548635	     20.87903784	     -1.28733901	     -1.00840403	    -60.67172729	      4.44272239	     -7.88171247	      2.23765681	    -12.49359384	      7.65786318	      0.86617355
      1.00750000	     -1.41715124	      0.25759723	      0.79106317	     -0.32150807	      1.01360384	      0.37136191	      6.03349040	      2.47141818	      0.23501261	    -14.65584841	     11.17168171	    -10.44348180	     -1.70051206	     21.23669248	     -1.20688601	     -1.06282722	    -59.82561793	      4.71723330	     -7.63758279	      2.20966828	    -12.55452703	      7.53689971	      0.99229998
      1.01166667	     -1.38680573	      0.34700061	      0.68898607	     -0.31698564	      1.01402039	      0.37166759	      5.51606035	      2.37700646	      0.19699467	    -14.22158404	     11.20856663	    -10.23439317	     -1.66441408	     21.56957282	     -1.12384201	     -1.10580453	    -58.94500936	      4.95925284	     -7.40785453	      2.18630110	    -12.62674454	      7.40250068	      1.12252777
      1.01583333	     -1.34739174	      0.41982224	      0.58763125	     -0.31245891	      1.01439271	      0.37196360	      4.98886624	      2.29924993	      0.15795859	    -13.78743016	     11.25268426	    -10.01511080	     -1.62638928	     21.88383764	     -1.05991317	     -1.14163503	    -58.04013606	      5.16851670	     -7.19905543	      2.16561429	    -12.71344092	      7.28740890	      1.26175474
      1.02000000	     -1.27088239	      0.48551400	      0.48892502	     -0.30792356	      1.01477715	      0.37224456	      4.41636410	      2.22849077	      0.12202063	    -13.34610191	     11.35179051	     -9.79178753	     -1.56144970	     22.14399636	     -1.00001537	     -1.16313563	    -57.10219073	      5.35126784	     -7.02044750	      2.13207264	    -12.85339914	      7.17284980	      1.44290862
      1.02416667	     -1.22585490	      0.55417376	      0.38887837	     -0.30338787	      1.01506593	      0.37250721	      3.88683147	      2.15085030	      0.07804935	    -12.92166384	     11.40999394	     -9.57869184	     -1.50022303	     22.42575281	     -0.93520710	     -1.18112520	    -56.13214205	      5.49333347	     -6.86245255	      2.10498838	    -12.94064152	      7.06313172	      1.58425156
      1.02833333	     -1.20038683	      0.62588278	      0.28052014	     -0.29884723	      1.01530384	      0.37275917	      3.38260371	      2.06776608	      0.04856461	    -12.50399538	     11.42364312	     -9.36225093	     -1.45791348	     22.71058225	     -0.86424245	     -1.19047078	    -55.12125752	      5.58886578	     -6.73004610	      2.08945846	    -13.00076349	      6.96194084	      1.69588547
      1.03250000	     -1.13898458	      0.68368737	      0.18118838	     -0.29430260	      1.01552264	      0.37299285	      2.83496690	      1.99922591	      0.01162619	    -12.08332847	     11.53742302	     -9.13158101	     -1.38754053	     22.94813939	     -0.80543597	     -1.18495518	    -54.09160628	      5.66922167	     -6.64138823	      2.06725737	    -13.12009425	      6.85969975	      1.86531297
      1.03666667	     -1.08145748	      0.74639001	      0.07842596	     -0.28975309	      1.01570568	      0.37321280	      2.29658546	      1.92224190	     -0.02258833	    -11.67113284	     11.60928542	     -8.90523531	     -1.31643401	     23.17108771	     -0.73842011	     -1.16917030	    -53.02080741	      5.71193303	     -6.57064432	      2.04779276	    -13.22214893	      6.76166830	      2.00674081
